<svg width="392" height="246" viewBox="0 0 392 246" fill="none" xmlns="http://www.w3.org/2000/svg">
<path d="M0 0H155.43L67.9697 200.244L384.574 191.914L149.766 245.057H0L155.43 0L0 42.2156V0Z" fill="url(#paint0_linear_462_1250)"/>
<path d="M384.659 245.059H236.393L323.853 44.8149L0.513759 53.1448L242.057 0.00202634H391.823L236.393 245.059L384.659 198.913V245.059Z" fill="url(#paint1_linear_462_1250)"/>
<path d="M170.495 58.6445L122.553 167.547L282.541 163.016L85.2959 191.918L170.495 58.6445Z" fill="url(#paint2_linear_462_1250)"/>
<path d="M221.334 186.415L269.275 77.5125L109.288 82.0427L306.532 53.1411L221.334 186.415Z" fill="url(#paint3_linear_462_1250)"/>
<defs>
<linearGradient id="paint0_linear_462_1250" x1="192.287" y1="0" x2="192.287" y2="245.057" gradientUnits="userSpaceOnUse">
<stop stop-color="#5B48E7"/>
<stop offset="1" stop-color="#A054F5"/>
</linearGradient>
<linearGradient id="paint1_linear_462_1250" x1="196.168" y1="245.059" x2="196.168" y2="0.00202942" gradientUnits="userSpaceOnUse">
<stop stop-color="#5B48E7"/>
<stop offset="1" stop-color="#A054F5"/>
</linearGradient>
<linearGradient id="paint2_linear_462_1250" x1="183.918" y1="58.6445" x2="183.918" y2="191.918" gradientUnits="userSpaceOnUse">
<stop stop-color="#5B48E7"/>
<stop offset="1" stop-color="#A054F5"/>
</linearGradient>
<linearGradient id="paint3_linear_462_1250" x1="207.91" y1="186.415" x2="207.91" y2="53.1411" gradientUnits="userSpaceOnUse">
<stop stop-color="#5B48E7"/>
<stop offset="1" stop-color="#A054F5"/>
</linearGradient>
</defs>
</svg>
